<svg id="Pactflow-blog-logo" xmlns="http://www.w3.org/2000/svg" width="438.48" height="107.244" viewBox="0 0 438.48 107.244">
  <g id="Group_1" data-name="Group 1" transform="translate(136.897 5.214)">
    <path id="Path_1" data-name="Path 1" d="M136.83,8.658s-4.956-.565-7.009-.565c-2.974,0-4.5,1.062-4.5,3.151,0,2.266,1.274,2.8,5.416,3.929,5.1,1.415,6.937,2.761,6.937,6.9,0,5.309-3.327,7.61-8.106,7.61a51.572,51.572,0,0,1-7.929-.956l.389-3.151s4.778.638,7.292.638c3.009,0,4.389-1.345,4.389-3.894,0-2.054-1.1-2.761-4.814-3.646-5.238-1.344-7.5-2.938-7.5-7.149,0-4.885,3.222-6.9,8.071-6.9a53.7,53.7,0,0,1,7.681.849l-.318,3.186Z" transform="translate(-121.397 -4.624)" fill="#173647"/>
    <path id="Path_2" data-name="Path 2" d="M144.193,5h6.833l5.416,18.937L161.858,5h6.866V29.246h-3.964V8.292h-.209L158.5,28.256h-4.106L148.333,8.292h-.209V29.246H144.2V5Z" transform="translate(-118.486 -4.576)" fill="#173647"/>
    <path id="Path_3" data-name="Path 3" d="M219.91,5h17.7V8.5h-6.831V29.246h-3.964V8.5h-6.9Z" transform="translate(-108.819 -4.576)" fill="#173647"/>
    <path id="Path_4" data-name="Path 4" d="M251.808,5c4.814,0,7.4,1.805,7.4,6.3,0,2.938-.92,4.389-2.867,5.451,2.088.814,3.469,2.3,3.469,5.628,0,4.956-3.009,6.868-7.716,6.868h-9.487V5h9.2Zm-5.274,3.4v6.939h5.2c2.408,0,3.469-1.2,3.469-3.576,0-2.335-1.2-3.363-3.61-3.363Zm0,10.266V25.85h5.345c2.441,0,3.893-.779,3.893-3.682,0-2.761-2.053-3.5-3.964-3.5Z" transform="translate(-105.921 -4.576)" fill="#173647"/>
    <path id="Path_5" data-name="Path 5" d="M266.5,5h15.292V8.434H270.427V15.3h9.239v3.364h-9.239v7.115h11.362v3.469H266.5Z" transform="translate(-102.871 -4.576)" fill="#173647"/>
    <path id="Path_6" data-name="Path 6" d="M293.228,5h7.823l6.017,24.246H303.1l-1.791-7.115h-8.348l-1.79,7.115h-3.929L293.229,5Zm.522,13.663h6.8L298.043,8.291h-1.769l-2.523,10.372Z" transform="translate(-100.221 -4.576)" fill="#173647"/>
    <path id="Path_7" data-name="Path 7" d="M316.508,22.061v7.186h-3.929V5h9.2c5.344,0,8.212,3.063,8.212,8.442,0,3.434-1.38,6.53-3.964,7.734l4,8.071h-4.319l-3.5-7.186ZM321.782,8.4h-5.274V18.664h5.345c2.973,0,4.1-2.673,4.1-5.185,0-2.762-1.344-5.08-4.177-5.08Z" transform="translate(-96.987 -4.576)" fill="#173647"/>
    <path id="Path_8" data-name="Path 8" d="M179.526,5h7.823l6.017,24.246H189.4l-1.791-7.115h-8.348l-1.79,7.115h-3.929L179.527,5Zm.522,13.663h6.8L184.341,8.291h-1.769l-2.523,10.372Z" transform="translate(-114.739 -4.576)" fill="#173647"/>
    <path id="Path_9" data-name="Path 9" d="M202.806,22.061v7.186h-3.929V5h9.2c5.344,0,8.212,3.063,8.212,8.442,0,3.434-1.38,6.53-3.964,7.734l4,8.071H212.01l-3.5-7.186ZM208.08,8.4h-5.274V18.664h5.345c2.973,0,4.1-2.673,4.1-5.185,0-2.762-1.344-5.08-4.177-5.08Z" transform="translate(-111.504 -4.576)" fill="#173647"/>
  </g>
  <g id="Group_5" data-name="Group 5">
    <g id="Group_2" data-name="Group 2">
      <rect id="Rectangle_1" data-name="Rectangle 1" width="101.592" height="101.605" transform="translate(2.818 2.82)" fill="#50e4ea"/>
      <path id="Path_10" data-name="Path 10" d="M101.59,5.638v95.967H5.638V5.638H101.59M107.229,0H0V107.244H107.229V0Z" fill="#173647"/>
    </g>
    <g id="Group_4" data-name="Group 4" transform="translate(20.025 23.724)">
      <g id="Group_3" data-name="Group 3" transform="translate(7.274 1.165)">
        <path id="Path_11" data-name="Path 11" d="M51.507,69.286a6.624,6.624,0,0,1-1.631-2.155,6.758,6.758,0,0,1-.8-2.288,39.65,39.65,0,0,1-4.754,4.67,13.286,13.286,0,0,1-5.7,2.955,4.532,4.532,0,0,1-2.252-.158,5.636,5.636,0,0,1-1.058-.516,3.893,3.893,0,0,1-.783-.638,3.515,3.515,0,0,1-.836-1.893,10.97,10.97,0,0,1,.056-3.249,41.6,41.6,0,0,1,2.183-7.8c.456-1.252.549-1.4,1.058-2.668.033-.089.069-.177.1-.266l.67-1.655a51.14,51.14,0,0,1-9.526,5.558,39.73,39.73,0,0,0-1.845,5.349,18.251,18.251,0,0,0-.573,5.493,12.644,12.644,0,0,0,.621,3.161,10.836,10.836,0,0,0,1.626,3.059,12.085,12.085,0,0,0,2.41,2.369c.868.634,6.018,4.255,13.622,1.308,4.787-1.853,8.113-4.573,12.226-9.2a6.811,6.811,0,0,1-4.82-1.429v0Z" transform="translate(-24.005 -18.043)" fill="#173647"/>
        <path id="Path_12" data-name="Path 12" d="M27.468,34.49a4.007,4.007,0,0,1,1.84,2.346c1.086-1.388,1.707-2.131,2.765-3.346a32.48,32.48,0,0,1,2.817-2.865,11.835,11.835,0,0,1,2.9-2.026,2.759,2.759,0,0,1,2.087-.186,2.39,2.39,0,0,1,1.3,1.3,6.84,6.84,0,0,1,.271,3.269l5.635-5.235c-.121-.311-.263-.618-.416-.92a9.083,9.083,0,0,0-2.058-2.6,9.762,9.762,0,0,0-1.255-.94l-.323-.2c-.085-.053-.2-.109-.3-.161-.033-.02-.064-.036-.1-.053a7.515,7.515,0,0,0-.864-.376,7.606,7.606,0,0,0-3.657-.335,10.214,10.214,0,0,0-2.979.977,18.769,18.769,0,0,0-4.25,3.052,37.978,37.978,0,0,0-3.269,3.479c-1.324,1.6-2.175,2.656-3.411,4.44a5.8,5.8,0,0,1,3.269.383h-.008Z" transform="translate(-24.208 -22.072)" fill="#173647"/>
      </g>
      <path id="Path_13" data-name="Path 13" d="M81.834,34.262a19.077,19.077,0,0,1-.848,4.084,39.846,39.846,0,0,1-2.878,6.563c-.436.811-.876,1.6-1.311,2.369h.044s-7.895,13.38-13.53,20.492c-2.1,2.643-5.4,4.485-8.081,2.579-2.458-1.743-1.505-5.671-.448-7.184,1.163-1.663,5.009-7,8.045-11.641,4.759-7.274,7.33-11.25,9.264-16.142a9.732,9.732,0,0,0,.537-2.05,3.968,3.968,0,0,0-.02-1.38,2.7,2.7,0,0,0-.887-1.587c-1.041-.831-1.873-1-3.665-.7-1.377.235-4.368,1.429-9.784,5.651-.771.6-1.579,1.158-2.337,1.772-.379.3-.754.609-1.118.925l-1.2,1-9.707,8.056c-3.269,2.684-6.507,5.388-10.115,7.956-.9.642-1.853,1.263-2.873,1.865a17.17,17.17,0,0,1-3.5,1.6,9.108,9.108,0,0,1-2.3.408,7,7,0,0,1-2.595-.371,8.378,8.378,0,0,1-2.16-1.178c-3.2-2.365-2.74-6.6-2.3-8.352a25.032,25.032,0,0,1,1.962-5.263c-.266.529.541-1.05.8-1.558.436-.868.532-1.041.815-1.579.917-1.732,2.7-2.967,4.388-2.123a2.8,2.8,0,0,1,.811,3.915c-.682,1.186-4.391,7.318-2.26,9.1,1.1.917,3.084.012,3.859-.488a16.642,16.642,0,0,0,1.837-1.368c3.08-2.527,5.845-5.078,8.879-7.939l.44-.419,8.687-8.275.315-.3.844-.792q.629-.575,1.275-1.127,1.284-1.1,2.62-2.119a55.68,55.68,0,0,1,5.638-3.823A31.361,31.361,0,0,1,65.6,21.8a16.475,16.475,0,0,1,4.189-.754c.189-.012.379-.012.569-.012h.153a10.656,10.656,0,0,1,4.468,1.05c.214.1.456.242.634.347l.465.279c.307.2.618.4.92.629a12.965,12.965,0,0,1,1.779,1.579A11.353,11.353,0,0,1,81.387,29.4a12.952,12.952,0,0,1,.46,4.868l-.012,0Z" transform="translate(-17.758 -21.038)" fill="#173647"/>
    </g>
  </g>
  <g id="Group_6" data-name="Group 6" transform="translate(139.519 43.412)">
    <path id="Path_14" data-name="Path 14" d="M158.432,57.569q0,8.312-5.672,12.786T136.528,74.83h-6.44V96.36h-6.366V41.618h14.191q20.518,0,20.518,15.951ZM130.088,69.363h5.729q8.461,0,12.243-2.733t3.782-8.762q0-5.43-3.557-8.088T137.2,47.122h-7.115V69.363Z" transform="translate(-123.722 -38.099)" fill="#173647"/>
    <path id="Path_15" data-name="Path 15" d="M186.58,94.884l-1.236-5.841h-.3a17.265,17.265,0,0,1-6.122,5.222,18.642,18.642,0,0,1-7.62,1.368q-6.1,0-9.566-3.145t-3.463-8.949q0-12.433,19.882-13.03l6.965-.224V67.737q0-4.829-2.078-7.134t-6.647-2.3a27.082,27.082,0,0,0-11.607,3.145l-1.909-4.755a29.118,29.118,0,0,1,6.647-2.584,28.748,28.748,0,0,1,7.245-.936q7.338,0,10.878,3.258t3.539,10.447V94.884h-4.605ZM172.539,90.5q5.8,0,9.117-3.182t3.313-8.911V74.7l-6.216.262q-7.414.261-10.689,2.3a6.945,6.945,0,0,0-3.276,6.348,6.4,6.4,0,0,0,2.041,5.13,8.471,8.471,0,0,0,5.709,1.76Z" transform="translate(-119.311 -36.623)" fill="#173647"/>
    <path id="Path_16" data-name="Path 16" d="M213.909,95.641q-8.913,0-13.8-5.486t-4.886-15.519q0-10.3,4.961-15.913t14.134-5.616a28.077,28.077,0,0,1,5.916.636,19.437,19.437,0,0,1,4.643,1.5l-1.909,5.28a29.4,29.4,0,0,0-4.493-1.368,20.124,20.124,0,0,0-4.305-.541q-12.507,0-12.506,15.951,0,7.563,3.051,11.607t9.043,4.044A27.646,27.646,0,0,0,224.282,88v5.5a22.424,22.424,0,0,1-10.371,2.135Z" transform="translate(-114.592 -36.632)" fill="#173647"/>
    <path id="Path_17" data-name="Path 17" d="M244.52,91.5a20.15,20.15,0,0,0,3.182-.245,20.669,20.669,0,0,0,2.434-.5v4.755a11.4,11.4,0,0,1-2.977.8,22.382,22.382,0,0,1-3.539.319q-11.907,0-11.907-12.543V59.679h-5.879v-3l5.879-2.584,2.621-8.762h3.6v9.511h11.907v4.83H237.928v24.15a8.307,8.307,0,0,0,1.76,5.691,6.124,6.124,0,0,0,4.83,1.985Z" transform="translate(-110.684 -37.624)" fill="#173647"/>
    <path id="Path_18" data-name="Path 18" d="M260.424,96.359h-6.366V41.618h30.516v5.654h-24.15V67.3h22.69v5.654h-22.69v23.4Z" transform="translate(-107.081 -38.099)" fill="#173647"/>
    <path id="Path_19" data-name="Path 19" d="M293.629,96.757h-6.216V38.5h6.216Z" transform="translate(-102.822 -38.497)" fill="#173647"/>
    <path id="Path_20" data-name="Path 20" d="M338.7,74.337q0,10.034-5.054,15.669t-13.966,5.636a18.5,18.5,0,0,1-9.772-2.584,17.052,17.052,0,0,1-6.59-7.413A25.826,25.826,0,0,1,301,74.338Q301,64.3,306.013,58.7t13.929-5.6q8.612,0,13.686,5.729t5.073,15.5Zm-31.265,0q0,7.862,3.145,11.982t9.248,4.118q6.1,0,9.267-4.1t3.164-12q0-7.827-3.164-11.889t-9.342-4.062q-6.1,0-9.211,4.007t-3.108,11.944Z" transform="translate(-101.088 -36.631)" fill="#173647"/>
    <path id="Path_21" data-name="Path 21" d="M376.675,94.807l-7.526-24.076q-.712-2.211-2.658-10.034h-.3q-1.5,6.551-2.621,10.11l-7.751,24h-7.189l-11.2-41.037h6.515Q347.918,69.234,350,77.322a95.51,95.51,0,0,1,2.377,10.9h.3q.411-2.135,1.329-5.523t1.591-5.372L363.12,53.77h6.74L377.2,77.322a79.611,79.611,0,0,1,2.845,10.821h.3a39.4,39.4,0,0,1,.805-4.157q.655-2.808,7.807-30.216h6.44L384.051,94.807h-7.376Z" transform="translate(-96.435 -36.547)" fill="#173647"/>
  </g>
</svg>
